# This file uses centimeters as units for non-parametric coordinates.

mtllib turret_base.mtl
g default
v 0.506760 0.000258 -0.854316
v 0.486480 0.000258 -0.866025
v 0.506762 0.274146 -0.854314
v 0.486477 0.274146 -0.866025
v -0.486479 0.000258 -0.866026
v -0.506760 0.000258 -0.854316
v -0.486477 0.274146 -0.866026
v -0.506761 0.274146 -0.854314
v -0.993240 0.000258 -0.011709
v -0.993240 0.000258 0.011709
v -0.993239 0.274146 -0.011711
v -0.993239 0.274146 0.011711
v -0.506760 0.000258 0.854316
v -0.486480 0.000258 0.866025
v -0.506761 0.274146 0.854314
v -0.486477 0.274146 0.866025
v 0.486479 0.000258 0.866025
v 0.506760 0.000258 0.854316
v 0.486477 0.274146 0.866025
v 0.506761 0.274146 0.854314
v 0.993240 0.000258 0.011709
v 0.993240 0.000258 -0.011709
v 0.993239 0.274146 0.011711
v 0.993239 0.274146 -0.011711
v 0.212236 1.142301 -0.386948
v 0.228989 1.142301 -0.377275
v 0.228809 1.561741 -0.377588
v 0.212597 1.561741 -0.386948
v -0.228989 1.142301 -0.377275
v -0.212235 1.142301 -0.386948
v -0.228808 1.561741 -0.377588
v -0.212596 1.561741 -0.386948
v -0.441225 1.142301 0.009673
v -0.441225 1.142301 -0.009673
v -0.441405 1.561741 0.009360
v -0.441405 1.561741 -0.009360
v -0.212235 1.142301 0.386948
v -0.228989 1.142301 0.377275
v -0.212597 1.561741 0.386948
v -0.228809 1.561741 0.377588
v 0.228989 1.142301 0.377275
v 0.212235 1.142301 0.386948
v 0.228808 1.561741 0.377588
v 0.212597 1.561741 0.386948
v 0.441225 1.142301 -0.009673
v 0.441225 1.142301 0.009673
v 0.441405 1.561741 -0.009360
v 0.441405 1.561741 0.009360
v 0.468187 0.333066 -0.836714
v 0.490523 0.333066 -0.823818
v -0.490523 0.333066 -0.823819
v -0.468186 0.333066 -0.836714
v -0.958709 0.333066 0.012896
v -0.958709 0.333066 -0.012896
v -0.468186 0.333066 0.836714
v -0.490523 0.333066 0.823818
v 0.490523 0.333066 0.823819
v 0.468186 0.333066 0.836714
v 0.958709 0.333066 -0.012896
v 0.958709 0.333066 0.012896
vt 0.576012 0.020934
vt 0.579181 0.022763
vt 0.655194 0.154420
vt 0.655194 0.158080
vt 0.579181 0.289737
vt 0.576012 0.291566
vt 0.423988 0.291566
vt 0.420819 0.289737
vt 0.344806 0.158080
vt 0.344806 0.154420
vt 0.420819 0.022763
vt 0.423988 0.020934
vt 0.580015 0.975793
vt 0.416103 0.312500
vt 0.417230 0.671967
vt 0.417230 0.312500
vt 0.457770 0.312500
vt 0.458897 0.671967
vt 0.458897 0.312500
vt 0.499437 0.312500
vt 0.500563 0.671967
vt 0.500563 0.312500
vt 0.541103 0.312500
vt 0.542230 0.671967
vt 0.542230 0.312500
vt 0.582770 0.312500
vt 0.583897 0.671967
vt 0.583897 0.312500
vt 0.624437 0.312500
vt 0.574345 0.979066
vt 0.419985 0.975793
vt 0.345640 0.840477
vt 0.425655 0.708434
vt 0.580015 0.711707
vt 0.654360 0.847023
vt 0.580078 0.975684
vt 0.377196 0.688440
vt 0.415370 0.688440
vt 0.654297 0.847133
vt 0.655046 0.845836
vt 0.579329 0.976981
vt 0.418863 0.688440
vt 0.457036 0.688440
vt 0.575717 0.979066
vt 0.460529 0.688440
vt 0.498703 0.688440
vt 0.419922 0.975684
vt 0.420671 0.976981
vt 0.502196 0.688440
vt 0.540370 0.688440
vt 0.345703 0.840367
vt 0.344954 0.841664
vt 0.543863 0.688440
vt 0.582770 0.671967
vt 0.582036 0.688440
vt 0.425781 0.708434
vt 0.424283 0.708434
vt 0.623703 0.688440
vt 0.580078 0.711816
vt 0.579329 0.710519
vt 0.375000 0.312500
vt 0.375563 0.312500
vt 0.375563 0.671967
vt 0.375000 0.671967
vt 0.624436 0.671967
vt 0.624946 0.673262
vt 0.624310 0.688440
vt 0.416667 0.312500
vt 0.416667 0.671967
vt 0.416103 0.671967
vt 0.416612 0.673262
vt 0.415977 0.688440
vt 0.458333 0.312500
vt 0.458333 0.671967
vt 0.457770 0.671967
vt 0.458279 0.673262
vt 0.457643 0.688440
vt 0.500000 0.312500
vt 0.500000 0.671967
vt 0.499437 0.671967
vt 0.499946 0.673262
vt 0.499310 0.688440
vt 0.541667 0.312500
vt 0.541667 0.671967
vt 0.541103 0.671967
vt 0.541612 0.673262
vt 0.540977 0.688440
vt 0.583333 0.312500
vt 0.583333 0.671967
vt 0.583472 0.673398
vt 0.585530 0.688440
vt 0.584923 0.688440
vt 0.574219 0.979066
vt 0.578125 0.979066
vt 0.578125 0.979066
vt 0.578125 0.979066
vt 0.421875 0.979066
vt 0.424283 0.979066
vt 0.421875 0.979066
vt 0.425781 0.979066
vt 0.421875 0.979066
vt 0.425655 0.979066
vt 0.343750 0.843750
vt 0.344954 0.845836
vt 0.343750 0.843750
vt 0.345703 0.847133
vt 0.343750 0.843750
vt 0.345640 0.847023
vt 0.421875 0.708434
vt 0.420671 0.710519
vt 0.421875 0.708434
vt 0.419922 0.711816
vt 0.421875 0.708434
vt 0.419985 0.711707
vt 0.578125 0.708434
vt 0.575717 0.708434
vt 0.578125 0.708434
vt 0.574219 0.708434
vt 0.578125 0.708434
vt 0.574345 0.708434
vt 0.656250 0.843750
vt 0.655046 0.841664
vt 0.656250 0.843750
vt 0.654297 0.840367
vt 0.656250 0.843750
vt 0.654360 0.840477
vn 0.000000 0.000000 -1.000000
vn 0.000000 0.000000 -1.000000
vn 0.000000 0.000000 -1.000000
vn 0.000000 -0.000000 -1.000000
vn -0.866025 0.000000 -0.500000
vn -0.866025 -0.000000 -0.500000
vn -0.866025 -0.000000 -0.500000
vn -0.866025 -0.000000 -0.500000
vn -0.866026 0.000000 0.500000
vn -0.866026 0.000000 0.500000
vn -0.866026 0.000000 0.500000
vn -0.866026 0.000000 0.500000
vn -0.000000 0.000000 1.000000
vn -0.000000 0.000000 1.000000
vn -0.000000 0.000000 1.000000
vn 0.000000 -0.000000 1.000000
vn 0.866026 -0.000000 0.500000
vn 0.866026 -0.000000 0.500000
vn 0.866026 -0.000000 0.500000
vn 0.866025 -0.000000 0.500000
vn 0.866026 0.000000 -0.500000
vn 0.866026 -0.000000 -0.500000
vn 0.866026 -0.000000 -0.500000
vn 0.866026 -0.000000 -0.500000
vn 0.000000 0.485801 -0.874070
vn 0.000000 0.485801 -0.874070
vn 0.000000 0.485801 -0.874070
vn 0.000000 0.485801 -0.874070
vn -0.756966 0.485801 -0.437035
vn -0.756966 0.485801 -0.437035
vn -0.756966 0.485801 -0.437035
vn -0.756966 0.485801 -0.437035
vn -0.756967 0.485801 0.437035
vn -0.756967 0.485801 0.437035
vn -0.756967 0.485801 0.437035
vn -0.756966 0.485801 0.437035
vn 0.000000 0.485801 0.874070
vn 0.000000 0.485801 0.874070
vn 0.000000 0.485801 0.874070
vn 0.000000 0.485801 0.874069
vn 0.756967 0.485801 0.437035
vn 0.756966 0.485801 0.437035
vn 0.756966 0.485801 0.437035
vn 0.756966 0.485801 0.437035
vn 0.756967 0.485801 -0.437034
vn 0.756967 0.485801 -0.437035
vn 0.756967 0.485801 -0.437035
vn 0.756967 0.485801 -0.437035
vn 0.000000 -0.000000 -1.000000
vn 0.000000 0.000000 -1.000000
vn 0.000000 0.000000 -1.000000
vn 0.000000 0.000000 -1.000000
vn -0.866025 0.000000 -0.500000
vn -0.866025 0.000000 -0.500000
vn -0.866025 0.000000 -0.500000
vn -0.866025 0.000000 -0.500000
vn -0.866026 0.000000 0.500000
vn -0.866026 0.000000 0.500000
vn -0.866026 0.000000 0.500000
vn -0.866026 -0.000000 0.500000
vn -0.000000 -0.000000 1.000000
vn -0.000000 0.000000 1.000000
vn -0.000000 0.000000 1.000000
vn 0.000000 0.000000 1.000000
vn 0.866026 -0.000000 0.500000
vn 0.866026 0.000000 0.500000
vn 0.866026 0.000000 0.500000
vn 0.866026 0.000000 0.500000
vn 0.866025 -0.000000 -0.500000
vn 0.866026 0.000000 -0.500000
vn 0.866026 0.000000 -0.500000
vn 0.866026 0.000000 -0.499999
vn 0.775379 0.445403 -0.447665
vn 0.775379 0.445403 -0.447665
vn 0.775379 0.445403 -0.447665
vn 0.775379 0.445402 -0.447665
vn 0.000000 0.445402 -0.895331
vn 0.000000 0.445402 -0.895331
vn 0.000000 0.445402 -0.895331
vn 0.000000 0.445401 -0.895331
vn -0.775378 0.445404 -0.447665
vn -0.775379 0.445403 -0.447665
vn -0.775379 0.445403 -0.447665
vn -0.775379 0.445401 -0.447666
vn -0.775379 0.445403 0.447665
vn -0.775379 0.445402 0.447665
vn -0.775379 0.445402 0.447665
vn -0.775380 0.445401 0.447666
vn 0.000000 0.445402 0.895331
vn -0.000000 0.445402 0.895331
vn -0.000000 0.445402 0.895331
vn -0.000000 0.445402 0.895331
vn 0.775380 0.445401 0.447665
vn 0.775379 0.445403 0.447665
vn 0.775379 0.445403 0.447665
vn 0.775378 0.445404 0.447665
vn 0.000000 -1.000000 0.000000
vn 0.000000 -1.000000 0.000000
vn 0.000000 -1.000000 -0.000000
vn 0.000000 -1.000000 0.000000
vn 0.000000 -1.000000 -0.000000
vn 0.000000 -1.000000 -0.000000
vn 0.000000 -1.000000 0.000000
vn 0.000000 -1.000000 0.000000
vn 0.000000 -1.000000 0.000000
vn 0.000000 -1.000000 0.000000
vn 0.000000 -1.000000 0.000000
vn 0.000000 -1.000000 0.000000
vn 0.000000 1.000000 0.000000
vn 0.000000 1.000000 0.000001
vn 0.000000 1.000000 -0.000002
vn 0.000000 1.000000 -0.000009
vn 0.000000 1.000000 -0.000009
vn 0.000000 1.000000 0.000000
vn 0.000000 1.000000 0.000000
vn 0.000000 1.000000 0.000000
vn 0.000000 1.000000 0.000007
vn 0.000000 1.000000 -0.000001
vn 0.000000 1.000000 0.000030
vn 0.000000 1.000000 0.000014
vn 0.499999 0.000004 -0.866026
vn 0.500000 0.000004 -0.866026
vn 0.500000 0.000004 -0.866026
vn 0.500001 0.000004 -0.866025
vn 0.431378 0.505613 -0.747174
vn 0.431380 0.505613 -0.747173
vn 0.431380 0.505613 -0.747173
vn 0.431382 0.505613 -0.747171
vn -0.499998 0.000004 -0.866027
vn -0.499999 0.000004 -0.866026
vn -0.499999 0.000004 -0.866026
vn -0.500000 0.000004 -0.866025
vn -0.431381 0.505612 -0.747173
vn -0.431380 0.505613 -0.747173
vn -0.431380 0.505613 -0.747173
vn -0.431379 0.505614 -0.747173
vn -1.000000 0.000005 0.000000
vn -1.000000 0.000004 0.000000
vn -1.000000 0.000004 0.000000
vn -1.000000 0.000004 0.000000
vn -0.862762 0.505611 0.000000
vn -0.862760 0.505613 0.000000
vn -0.862760 0.505613 0.000000
vn -0.862759 0.505615 0.000000
vn -0.500006 0.000004 0.866022
vn -0.500002 0.000004 0.866025
vn -0.500002 0.000004 0.866025
vn -0.499998 0.000004 0.866027
vn -0.431382 0.505612 0.747172
vn -0.431381 0.505612 0.747173
vn -0.431381 0.505612 0.747173
vn -0.431379 0.505613 0.747173
vn 0.499998 0.000004 0.866027
vn 0.499998 0.000004 0.866027
vn 0.499998 0.000004 0.866027
vn 0.499997 0.000004 0.866027
vn 0.431377 0.505614 0.747174
vn 0.431380 0.505613 0.747173
vn 0.431380 0.505613 0.747173
vn 0.431382 0.505612 0.747172
vn 1.000000 0.000004 0.000000
vn 1.000000 0.000004 0.000000
vn 1.000000 0.000004 0.000000
vn 1.000000 0.000003 0.000000
vn 0.862760 0.505614 0.000000
vn 0.862760 0.505613 0.000000
vn 0.862760 0.505613 0.000000
vn 0.862761 0.505612 0.000000
vn 0.421237 0.538738 -0.729603
vn 0.421236 0.538739 -0.729603
vn 0.421236 0.538739 -0.729603
vn 0.421234 0.538739 -0.729604
vn 0.499998 -0.000430 -0.866026
vn 0.499999 -0.000430 -0.866026
vn 0.499999 -0.000430 -0.866026
vn 0.500000 -0.000430 -0.866025
vn -0.421232 0.538740 -0.729605
vn -0.421235 0.538740 -0.729603
vn -0.421235 0.538740 -0.729603
vn -0.421239 0.538739 -0.729601
vn -0.499996 -0.000430 -0.866028
vn -0.499998 -0.000430 -0.866027
vn -0.499998 -0.000430 -0.866027
vn -0.500000 -0.000430 -0.866025
vn -0.842473 0.538739 0.000000
vn -0.842473 0.538739 0.000000
vn -0.842473 0.538739 0.000000
vn -0.842473 0.538739 0.000000
vn -1.000000 -0.000430 0.000000
vn -1.000000 -0.000430 0.000000
vn -1.000000 -0.000430 0.000000
vn -1.000000 -0.000430 0.000000
vn -0.421232 0.538740 0.729605
vn -0.421235 0.538739 0.729604
vn -0.421235 0.538739 0.729604
vn -0.421238 0.538738 0.729602
vn -0.499998 -0.000430 0.866026
vn -0.499999 -0.000430 0.866026
vn -0.499999 -0.000430 0.866026
vn -0.500000 -0.000430 0.866025
vn 0.421234 0.538740 0.729604
vn 0.421233 0.538740 0.729604
vn 0.421233 0.538740 0.729604
vn 0.421233 0.538740 0.729605
vn 0.499998 -0.000431 0.866026
vn 0.499999 -0.000430 0.866026
vn 0.499999 -0.000430 0.866026
vn 0.500000 -0.000430 0.866026
vn 0.842473 0.538739 0.000000
vn 0.842473 0.538739 0.000000
vn 0.842473 0.538739 0.000000
vn 0.842473 0.538739 0.000000
vn 1.000000 -0.000430 0.000000
vn 1.000000 -0.000430 0.000000
vn 1.000000 -0.000430 0.000000
vn 1.000000 -0.000430 0.000000
s 1
g polySurface4
usemtl phong1SG
f 4/63/1 2/62/2 7/70/3
f 7/70/3 2/62/2 5/14/4
s 2
f 8/15/5 6/16/6 11/75/7
f 11/75/7 6/16/6 9/17/8
s 3
f 12/18/9 10/19/10 15/80/11
f 15/80/11 10/19/10 13/20/12
s 4
f 16/21/13 14/22/14 19/85/15
f 19/85/15 14/22/14 17/23/16
s 5
f 20/24/17 18/25/18 23/54/19
f 23/54/19 18/25/18 21/26/20
s 6
f 24/27/21 22/28/22 3/65/23
f 3/65/23 22/28/22 1/29/24
s 7
f 25/93/25 49/44/26 30/100/27
f 30/100/27 49/44/26 52/98/28
s 8
f 29/47/29 51/48/30 34/106/31
f 34/106/31 51/48/30 54/104/32
s 9
f 33/51/33 53/52/34 38/112/35
f 38/112/35 53/52/34 56/110/36
s 10
f 37/56/37 55/57/38 42/118/39
f 42/118/39 55/57/38 58/116/40
s 11
f 41/59/41 57/60/42 46/124/43
f 46/124/43 57/60/42 60/122/44
s 12
f 45/39/45 59/40/46 26/36/47
f 26/36/47 59/40/46 50/41/48
s 13
f 28/30/49 25/93/50 32/102/51
f 32/102/51 25/93/50 30/100/52
s 14
f 31/31/53 29/47/54 36/108/55
f 36/108/55 29/47/54 34/106/56
s 15
f 35/32/57 33/51/58 40/114/59
f 40/114/59 33/51/58 38/112/60
s 16
f 39/33/61 37/56/62 44/120/63
f 44/120/63 37/56/62 42/118/64
s 17
f 43/34/65 41/59/66 48/126/67
f 48/126/67 41/59/66 46/124/68
s 18
f 47/35/69 45/39/70 27/13/71
f 27/13/71 45/39/70 26/36/72
s 19
f 3/65/73 50/58/74 24/27/75
f 24/27/75 50/58/74 59/91/76
s 20
f 49/37/77 4/63/78 52/38/79
f 52/38/79 4/63/78 7/70/80
s 21
f 51/42/81 8/15/82 54/43/83
f 54/43/83 8/15/82 11/75/84
s 22
f 53/45/85 12/18/86 56/46/87
f 56/46/87 12/18/86 15/80/88
s 23
f 55/49/89 16/21/90 58/50/91
f 58/50/91 16/21/90 19/85/92
s 24
f 57/53/93 20/24/94 60/55/95
f 60/55/95 20/24/94 23/54/96
s 25
f 2/1/97 1/2/98 5/12/99
f 1/2/98 22/3/100 5/12/99
f 22/3/100 21/4/101 5/12/99
f 21/4/101 18/5/102 5/12/99
f 18/5/102 17/6/103 5/12/99
f 17/6/103 14/7/104 5/12/99
f 14/7/104 13/8/105 5/12/99
f 5/12/99 13/8/105 6/11/106
f 10/9/107 9/10/108 13/8/105
f 13/8/105 9/10/108 6/11/106
s 26
f 27/13/109 28/30/110 47/35/111
f 28/30/110 32/102/112 47/35/111
f 32/102/112 31/31/113 47/35/111
f 31/31/113 36/108/114 47/35/111
f 36/108/114 35/32/115 47/35/111
f 35/32/115 40/114/116 47/35/111
f 40/114/116 39/33/117 47/35/111
f 47/35/111 39/33/117 48/126/118
f 44/120/119 43/34/120 39/33/117
f 39/33/117 43/34/120 48/126/118
s 27
f 1/61/121 2/62/122 3/64/123
f 3/64/123 2/62/122 4/63/124
s 28
f 3/65/125 4/66/126 50/58/127
f 50/58/127 4/66/126 49/67/128
s 29
f 5/14/129 6/68/130 7/70/131
f 7/70/131 6/68/130 8/69/132
s 30
f 7/70/133 8/71/134 52/38/135
f 52/38/135 8/71/134 51/72/136
s 31
f 9/17/137 10/73/138 11/75/139
f 11/75/139 10/73/138 12/74/140
s 32
f 11/75/141 12/76/142 54/43/143
f 54/43/143 12/76/142 53/77/144
s 33
f 13/20/145 14/78/146 15/80/147
f 15/80/147 14/78/146 16/79/148
s 34
f 15/80/149 16/81/150 56/46/151
f 56/46/151 16/81/150 55/82/152
s 35
f 17/23/153 18/83/154 19/85/155
f 19/85/155 18/83/154 20/84/156
s 36
f 19/85/157 20/86/158 58/50/159
f 58/50/159 20/86/158 57/87/160
s 37
f 21/26/161 22/88/162 23/54/163
f 23/54/163 22/88/162 24/89/164
s 38
f 23/90/165 24/27/166 60/92/167
f 60/92/167 24/27/166 59/91/168
s 39
f 25/93/169 26/95/170 49/44/171
f 49/44/171 26/95/170 50/94/172
s 40
f 26/95/173 25/93/174 27/96/175
f 27/96/175 25/93/174 28/30/176
s 41
f 29/97/177 30/100/178 51/99/179
f 51/99/179 30/100/178 52/98/180
s 42
f 30/100/181 29/97/182 32/102/183
f 32/102/183 29/97/182 31/101/184
s 43
f 33/103/185 34/106/186 53/105/187
f 53/105/187 34/106/186 54/104/188
s 44
f 34/106/189 33/103/190 36/108/191
f 36/108/191 33/103/190 35/107/192
s 45
f 37/109/193 38/112/194 55/111/195
f 55/111/195 38/112/194 56/110/196
s 46
f 38/112/197 37/109/198 40/114/199
f 40/114/199 37/109/198 39/113/200
s 47
f 41/115/201 42/118/202 57/117/203
f 57/117/203 42/118/202 58/116/204
s 48
f 42/118/205 41/115/206 44/120/207
f 44/120/207 41/115/206 43/119/208
s 49
f 45/121/209 46/124/210 59/123/211
f 59/123/211 46/124/210 60/122/212
s 50
f 46/124/213 45/121/214 48/126/215
f 48/126/215 45/121/214 47/125/216
