# This file uses centimeters as units for non-parametric coordinates.

mtllib wall2.mtl
g default
v 0.500000 0.000000 -0.866025
v -0.500000 0.000000 -0.866026
v -1.000000 0.000000 -0.000000
v -0.500000 0.000000 0.866025
v 0.500000 0.000000 0.866025
v 1.000000 0.000000 0.000000
v 0.500000 0.372326 -0.866025
v 0.476118 0.413691 -0.824660
v -0.500000 0.372326 -0.866026
v -0.476118 0.413691 -0.824661
v -1.000000 0.372326 -0.000000
v -0.952236 0.413691 -0.000000
v -0.500000 0.372326 0.866025
v -0.476118 0.413691 0.824660
v 0.500000 0.372326 0.866025
v 0.476118 0.413691 0.824661
v 1.000000 0.372326 0.000000
v 0.952236 0.413691 -0.000000
vt 0.589898 0.551479
vt 0.589898 0.824331
vt 0.488308 0.824331
vt 0.488308 0.551479
vt 0.477021 0.557996
vt 0.477021 0.817815
vt 0.833096 0.998008
vt 0.833096 0.761711
vt 0.934686 0.761711
vt 0.934686 0.998008
vt 0.833096 0.525414
vt 0.934686 0.525414
vt 0.945973 0.986722
vt 0.945973 0.761711
vt 0.945973 0.536701
vt 0.595713 0.798266
vt 0.595713 0.525414
vt 0.697303 0.525414
vt 0.697303 0.798266
vt 0.708589 0.791750
vt 0.708589 0.531931
vt 0.714405 0.998008
vt 0.714405 0.761711
vt 0.815994 0.761711
vt 0.815994 0.998008
vt 0.714405 0.525414
vt 0.815994 0.525414
vt 0.827281 0.986722
vt 0.827281 0.761711
vt 0.827281 0.536701
vt 0.001888 0.138418
vt 0.238185 0.001992
vt 0.474482 0.138418
vt 0.474482 0.411270
vt 0.238185 0.547696
vt 0.001888 0.411270
vt 0.930553 0.391721
vt 0.705543 0.521631
vt 0.480533 0.391721
vt 0.480533 0.131902
vt 0.705543 0.001992
vt 0.930553 0.131902
vn 0.000000 0.000000 -1.000000
vn 0.000000 0.000000 -1.000000
vn 0.000000 0.000000 -1.000000
vn 0.000000 0.000000 -1.000000
vn -0.866025 0.000000 -0.500000
vn -0.866025 0.000000 -0.500000
vn -0.866025 0.000000 -0.500000
vn -0.866025 0.000000 -0.500000
vn -0.866026 0.000000 0.500000
vn -0.866026 0.000000 0.500000
vn -0.866026 0.000000 0.500000
vn -0.866026 0.000000 0.500000
vn 0.000000 0.000000 1.000000
vn 0.000000 0.000000 1.000000
vn 0.000000 0.000000 1.000000
vn 0.000000 0.000000 1.000000
vn 0.866025 0.000000 0.500000
vn 0.866025 0.000000 0.500000
vn 0.866025 0.000000 0.500000
vn 0.866025 0.000000 0.500000
vn 0.866026 0.000000 -0.500000
vn 0.866026 0.000000 -0.500000
vn 0.866026 0.000000 -0.500000
vn 0.866026 0.000000 -0.500000
vn 0.000000 -1.000000 0.000000
vn 0.000000 -1.000000 0.000000
vn 0.000000 -1.000000 0.000000
vn 0.000000 -1.000000 0.000000
vn 0.000000 -1.000000 -0.000000
vn 0.000000 -1.000000 -0.000000
vn 0.000000 1.000000 -0.000000
vn 0.000000 1.000000 -0.000000
vn 0.000000 1.000000 -0.000000
vn 0.000000 1.000000 0.000000
vn 0.000000 1.000000 -0.000000
vn 0.000000 1.000000 -0.000000
vn 0.000000 0.707107 -0.707107
vn 0.000000 0.707107 -0.707107
vn 0.000000 0.707107 -0.707107
vn 0.000000 0.707107 -0.707107
vn 0.612372 0.707107 -0.353553
vn 0.612372 0.707107 -0.353553
vn 0.612372 0.707107 -0.353553
vn 0.612372 0.707108 -0.353552
vn -0.612373 0.707107 -0.353553
vn -0.612372 0.707107 -0.353553
vn -0.612372 0.707107 -0.353553
vn -0.612372 0.707107 -0.353554
vn -0.612372 0.707108 0.353552
vn -0.612372 0.707107 0.353553
vn -0.612372 0.707107 0.353553
vn -0.612373 0.707106 0.353554
vn 0.000000 0.707106 0.707108
vn 0.000000 0.707106 0.707107
vn 0.000000 0.707106 0.707107
vn 0.000000 0.707107 0.707107
vn 0.612373 0.707107 0.353553
vn 0.612372 0.707107 0.353553
vn 0.612372 0.707107 0.353553
vn 0.612372 0.707108 0.353552
s 1
g pPrism1
usemtl surfaceShader7SG
f 1/1/1 2/2/2 7/4/3
f 7/4/3 2/2/2 9/3/4
s 2
f 2/7/5 3/8/6 9/10/7
f 9/10/7 3/8/6 11/9/8
s 3
f 3/8/9 4/11/10 11/9/11
f 11/9/11 4/11/10 13/12/12
s 4
f 4/16/13 5/17/14 13/19/15
f 13/19/15 5/17/14 15/18/16
s 5
f 5/22/17 6/23/18 15/25/19
f 15/25/19 6/23/18 17/24/20
s 6
f 6/23/21 1/26/22 17/24/23
f 17/24/23 1/26/22 7/27/24
s 7
f 1/31/25 6/32/26 2/36/27
f 6/32/26 5/33/28 2/36/27
f 5/33/28 4/34/29 2/36/27
f 4/34/29 3/35/30 2/36/27
s 8
f 10/37/31 12/38/32 8/42/33
f 12/38/32 14/39/34 8/42/33
f 14/39/34 16/40/35 8/42/33
f 16/40/35 18/41/36 8/42/33
s 9
f 8/5/37 7/4/38 10/6/39
f 10/6/39 7/4/38 9/3/40
s 10
f 7/27/41 8/30/42 17/24/43
f 17/24/43 8/30/42 18/29/44
s 11
f 10/13/45 9/10/46 12/14/47
f 12/14/47 9/10/46 11/9/48
s 12
f 12/14/49 11/9/50 14/15/51
f 14/15/51 11/9/50 13/12/52
s 13
f 14/20/53 13/19/54 16/21/55
f 16/21/55 13/19/54 15/18/56
s 14
f 16/28/57 15/25/58 18/29/59
f 18/29/59 15/25/58 17/24/60
