# This file uses centimeters as units for non-parametric coordinates.

mtllib wall.mtl
g default
v 0.500000 0.000000 0.866025
v -0.500000 0.000000 0.866025
v -1.000000 0.000000 0.000000
v -0.500000 0.000000 -0.866025
v 0.500000 0.000000 -0.866026
v 1.000000 0.000000 -0.000000
v 0.500000 1.345624 0.866025
v -0.500000 1.345624 0.866025
v -1.000000 1.345624 0.000000
v -0.500000 1.345624 -0.866025
v 0.500000 1.345624 -0.866026
v 1.000000 1.345624 -0.000000
vt 0.421875 0.020934
vt 0.578125 0.020934
vt 0.656250 0.156250
vt 0.578125 0.291566
vt 0.421875 0.291566
vt 0.343750 0.156250
vt 0.578125 0.020934
vt 0.421875 0.020934
vt 0.343750 0.156250
vt 0.421875 0.291566
vt 0.578125 0.291566
vt 0.656250 0.156250
vt 0.578125 0.020934
vt 0.421875 0.020934
vt 0.343750 0.156250
vt 0.421875 0.291566
vt 0.578125 0.291566
vt 0.656250 0.156250
vn 0.000000 -1.000000 -0.000000
vn 0.000000 -1.000000 -0.000000
vn 0.000000 -1.000000 -0.000000
vn 0.000000 -1.000000 0.000000
vn 0.000000 -1.000000 0.000000
vn 0.000000 -1.000000 0.000000
vn 0.000000 1.000000 0.000000
vn 0.000000 1.000000 -0.000000
vn 0.000000 1.000000 -0.000000
vn 0.000000 1.000000 -0.000000
vn 0.000000 1.000000 0.000000
vn 0.000000 1.000000 0.000000
vn -0.000000 0.000000 -1.000000
vn -0.000000 0.000000 -1.000000
vn -0.000000 0.000000 -1.000000
vn -0.000000 0.000000 -1.000000
vn 0.866025 0.000000 -0.500000
vn 0.866025 0.000000 -0.500000
vn 0.866025 0.000000 -0.500000
vn 0.866025 0.000000 -0.500000
vn 0.866026 0.000000 0.500000
vn 0.866026 0.000000 0.500000
vn 0.866026 0.000000 0.500000
vn 0.866026 0.000000 0.500000
vn 0.000000 0.000000 1.000000
vn 0.000000 0.000000 1.000000
vn 0.000000 0.000000 1.000000
vn 0.000000 0.000000 1.000000
vn -0.866025 0.000000 0.500000
vn -0.866025 0.000000 0.500000
vn -0.866025 0.000000 0.500000
vn -0.866026 0.000000 0.500000
vn -0.866026 0.000000 -0.500000
vn -0.866026 0.000000 -0.500000
vn -0.866026 0.000000 -0.500000
vn -0.866026 0.000000 -0.500000
s 1
g pPrism1
usemtl initialShadingGroup
f 7/13/1 8/14/2 12/18/3
f 8/14/2 9/15/4 12/18/3
f 9/15/4 10/16/5 12/18/3
f 10/16/5 11/17/6 12/18/3
s 2
f 1/7/7 6/12/8 2/8/9
f 6/12/8 5/11/10 2/8/9
f 5/11/10 4/10/11 2/8/9
f 4/10/11 3/9/12 2/8/9
s 3
f 1/2/13 2/1/14 7/13/15
f 7/13/15 2/1/14 8/14/16
s 4
f 2/1/17 3/6/18 8/14/19
f 8/14/19 3/6/18 9/15/20
s 5
f 3/6/21 4/5/22 9/15/23
f 9/15/23 4/5/22 10/16/24
s 6
f 4/5/25 5/4/26 10/16/27
f 10/16/27 5/4/26 11/17/28
s 7
f 5/4/29 6/3/30 11/17/31
f 11/17/31 6/3/30 12/18/32
s 8
f 6/3/33 1/2/34 12/18/35
f 12/18/35 1/2/34 7/13/36
g default
v 0.500000 0.000000 0.866025
v -0.500000 0.000000 0.866025
v -1.000000 0.000000 0.000000
v -0.500000 0.000000 -0.866025
v 0.500000 0.000000 -0.866026
v 1.000000 0.000000 -0.000000
v 0.500000 1.345624 0.866025
v -0.500000 1.345624 0.866025
v -1.000000 1.345624 0.000000
v -0.500000 1.345624 -0.866025
v 0.500000 1.345624 -0.866026
v 1.000000 1.345624 -0.000000
vt 0.421875 0.020934
vt 0.578125 0.020934
vt 0.656250 0.156250
vt 0.578125 0.291566
vt 0.421875 0.291566
vt 0.343750 0.156250
vt 0.578125 0.020934
vt 0.421875 0.020934
vt 0.343750 0.156250
vt 0.421875 0.291566
vt 0.578125 0.291566
vt 0.656250 0.156250
vt 0.578125 0.020934
vt 0.421875 0.020934
vt 0.343750 0.156250
vt 0.421875 0.291566
vt 0.578125 0.291566
vt 0.656250 0.156250
vn 0.000000 -1.000000 -0.000000
vn 0.000000 -1.000000 -0.000000
vn 0.000000 -1.000000 -0.000000
vn 0.000000 -1.000000 0.000000
vn 0.000000 -1.000000 0.000000
vn 0.000000 -1.000000 0.000000
vn 0.000000 1.000000 0.000000
vn 0.000000 1.000000 -0.000000
vn 0.000000 1.000000 -0.000000
vn 0.000000 1.000000 -0.000000
vn 0.000000 1.000000 0.000000
vn 0.000000 1.000000 0.000000
vn -0.000000 0.000000 -1.000000
vn -0.000000 0.000000 -1.000000
vn -0.000000 0.000000 -1.000000
vn -0.000000 0.000000 -1.000000
vn 0.866025 0.000000 -0.500000
vn 0.866025 0.000000 -0.500000
vn 0.866025 0.000000 -0.500000
vn 0.866025 0.000000 -0.500000
vn 0.866026 0.000000 0.500000
vn 0.866026 0.000000 0.500000
vn 0.866026 0.000000 0.500000
vn 0.866026 0.000000 0.500000
vn 0.000000 0.000000 1.000000
vn 0.000000 0.000000 1.000000
vn 0.000000 0.000000 1.000000
vn 0.000000 0.000000 1.000000
vn -0.866025 0.000000 0.500000
vn -0.866025 0.000000 0.500000
vn -0.866025 0.000000 0.500000
vn -0.866026 0.000000 0.500000
vn -0.866026 0.000000 -0.500000
vn -0.866026 0.000000 -0.500000
vn -0.866026 0.000000 -0.500000
vn -0.866026 0.000000 -0.500000
s 1
g pPrism1
f 19/31/37 20/32/38 24/36/39
f 20/32/38 21/33/40 24/36/39
f 21/33/40 22/34/41 24/36/39
f 22/34/41 23/35/42 24/36/39
s 2
f 13/25/43 18/30/44 14/26/45
f 18/30/44 17/29/46 14/26/45
f 17/29/46 16/28/47 14/26/45
f 16/28/47 15/27/48 14/26/45
s 3
f 13/20/49 14/19/50 19/31/51
f 19/31/51 14/19/50 20/32/52
s 4
f 14/19/53 15/24/54 20/32/55
f 20/32/55 15/24/54 21/33/56
s 5
f 15/24/57 16/23/58 21/33/59
f 21/33/59 16/23/58 22/34/60
s 6
f 16/23/61 17/22/62 22/34/63
f 22/34/63 17/22/62 23/35/64
s 7
f 17/22/65 18/21/66 23/35/67
f 23/35/67 18/21/66 24/36/68
s 8
f 18/21/69 13/20/70 24/36/71
f 24/36/71 13/20/70 19/31/72
